<?xml version="1.0" encoding="utf-8"?>
<!-- Generator: Adobe Illustrator 17.0.2, SVG Export Plug-In . SVG Version: 6.00 Build 0)  -->
<!DOCTYPE svg PUBLIC "-//W3C//DTD SVG 1.1//EN" "http://www.w3.org/Graphics/SVG/1.1/DTD/svg11.dtd">
<svg version="1.1" id="Layer_1" xmlns="http://www.w3.org/2000/svg" xmlns:xlink="http://www.w3.org/1999/xlink" x="0px" y="0px"
	 width="121px" height="111px" viewBox="0 0 121 111" enable-background="new 0 0 121 111" xml:space="preserve">
<g>
	<g>
		<path fill="#FFFFFF" d="M12.305,91.706c-1.803,0.675-3.017,0.914-4.6,0.914C3.256,92.62,0,89.493,0,85.198
			c0-4.188,3.256-7.444,7.444-7.444c1.497,0,2.583,0.216,3.818,0.803v-0.825h1.021v3.537h-1.021v-1.064
			c-1.322-0.975-2.3-1.345-3.689-1.345c-3.147,0-5.426,2.559-5.426,6.119c0,2.756,1.086,4.688,3.278,5.838
			c0.825,0.434,1.693,0.674,2.494,0.674c1.066,0,1.954-0.306,3.343-1.087v-1.433h1.042V91.706 M26.978,92.336h-4.904v-0.802h1.605
			v-3.841h-5.923v3.841h1.628v0.802h-4.905v-0.802h1.629v-8.42h-1.629v-0.803h4.905v0.803h-1.628v3.71h5.923v-3.71h-1.605v-0.803
			h4.904v0.803h-1.627v8.42h1.627V92.336z M34.239,92.336h-4.904v-0.802h1.628v-8.355h-1.628v-0.867h4.904v0.867h-1.628v8.355h1.628
			V92.336z M44.277,92.336h-7.705v-0.802h1.626v-8.355h-1.626v-0.867h4.903v0.867h-1.626v8.291h3.644v-1.13h0.784V92.336z
			 M46.017,91.534h1.628v-8.42h-1.628v-0.803h5.143c2.95,0,5.251,2.212,5.251,5.012c0,2.864-2.257,5.013-5.251,5.013h-5.143V91.534z
			 M50.986,91.47c2.018,0,3.559-1.781,3.559-4.123c0-2.348-1.541-4.169-3.537-4.169h-1.715v8.291H50.986z M81.019,92.336h-5.165
			v-0.802h1.628V80.857l-5.316,11.696l-5.339-11.934v10.915h1.651v0.802h-4.383v-0.802h1.648V78.817h-1.648v-0.802h3.492
			l4.949,11.067l5.099-11.067h3.385v0.802H79.39v12.716h1.629V92.336z M88.191,92.336h-4.904v-0.802h1.628v-8.355h-1.628v-0.867
			h4.904v0.867h-1.626v8.355h1.626V92.336z M100.286,92.511h-0.65l-6.294-7.377v6.4h1.651v0.802H90.63v-0.802h1.628v-7.791
			l-0.434-0.564h-1.519v-0.867h2.8l6.098,7.076v-6.208h-1.651v-0.867h4.365v0.867h-1.63V92.511z M103.864,91.534h1.625v-8.42h-1.625
			v-0.803h5.141c2.951,0,5.252,2.212,5.252,5.012c0,2.864-2.255,5.013-5.252,5.013h-5.141V91.534z M108.832,91.47
			c2.017,0,3.558-1.781,3.558-4.123c0-2.348-1.541-4.169-3.537-4.169h-1.714v8.291H108.832z M15.984,110.64h-5.166v-0.803h1.629
			V97.121h-1.629V96.32h5.166v0.802h-1.628v12.716h1.628V110.64z M28.085,110.815h-0.652l-6.294-7.38v6.402h1.649v0.803h-4.36
			v-0.803h1.626v-7.788l-0.434-0.563h-1.518v-0.869h2.801L27,107.689v-6.204h-1.65v-0.869h4.361v0.869h-1.626V110.815z
			 M32.31,110.769h-0.802v-2.616h0.802v1.035c0.867,0.521,1.476,0.717,2.213,0.717c1.085,0,1.865-0.609,1.865-1.455
			c0-0.825-0.584-1.388-2.386-2.301c-1.91-0.956-2.561-1.714-2.561-2.994c0-1.564,1.367-2.8,3.103-2.8
			c0.716,0,1.345,0.152,1.974,0.498v-0.541h0.804v2.301H36.52v-0.781c-0.844-0.457-1.237-0.565-1.821-0.565
			c-1.021,0-1.693,0.565-1.693,1.454c0,0.566,0.24,0.869,0.977,1.301c0.563,0.326,1.083,0.631,1.54,0.89
			c1.866,1.042,2.388,1.736,2.388,3.147c0,1.628-1.347,2.862-3.149,2.862c-0.825,0-1.605-0.238-2.452-0.715V110.769z
			 M48.093,100.617h-8.766v1.996h0.779v-1.127h3.17v8.352H41.43v0.803h5.339v-0.803h-1.846v-8.352h3.17v1.127h0.802v-1.996H48.093z
			 M50.553,101.485h1.627v8.352h-1.627v0.803h4.902v-0.803h-1.626v-8.352h1.626v-0.869h-4.902V101.485z M65.883,100.617h-8.766
			v1.996h0.781v-1.127h3.168v8.352H59.22v0.803h5.337v-0.803h-1.843v-8.352h3.168v1.127h0.804v-1.996H65.883z M75.169,101.485h1.626
			v5.422c0,1.759-1.169,3.018-2.8,3.018c-1.584,0-2.646-1.215-2.646-2.994v-5.447h1.649v-0.869h-4.928v0.869h1.651v5.899
			c0,2.042,1.692,3.537,4.016,3.537c2.473,0,4.166-1.604,4.166-3.947v-5.489h1.628v-0.869h-4.363V101.485z M89.625,100.617h-8.767
			v1.996h0.781v-1.127h3.17v8.352h-1.845v0.803h5.337v-0.803h-1.845v-8.352h3.17v1.127h0.802v-1.996H89.625z M99.051,109.774h-3.688
			v-3.798h2.778v1.086h0.801v-3.017l-0.801,0.023v1.04h-2.778v-3.622h3.557v1.127h0.781v-1.996h-7.615v0.8h1.628v8.421h-1.628v0.803
			h7.768v-2.017h-0.804V109.774z"/>
	</g>
</g>
<path fill="#CED4D1" d="M36.3,69.072c1.541-2.837,2.908-5.867,3.022-10.126c0.09-3.401-1.144-6.521-3.49-9.538
	c-5.488-7.028-9.453-12.108-9.438-21.908c0.01-6.716,2.872-13.596,7.855-18.874C39.487,3.079,46.598,0,53.478,0
	c11.227,0,19.666,6.121,23.315,14.084c1.704,3.717,2.521,7.95,1.544,11.235c0.26,0.446,1.152,2.14,1.52,2.895
	c1.62,3.319,4.866,5.04,4.866,7.859c0,1.741-1.46,2.511-1.46,2.511c-0.433,0.344-1.925,0.839-1.925,1.325
	c0,0.747,1.194,1.789,1.163,2.989c-0.017,0.62-0.279,1.729-1.851,2.458c0.911,0.72,1.901,1.569,0.963,3.403
	c-0.962,1.879-0.118,2.279-0.445,3.891c-0.373,1.851-1.054,2.933-2.431,3.838c-1.335,0.886-3.113,1.38-5.007,1.386
	c0,0-3.073-0.174-4.792,0.599c-1.412,0.634-2.216,1.702-2.616,3.443c-0.291,1.306-0.317,3.582-0.317,3.624
	c4.218,0.263,8.072,1.09,11.463,2.459c0.004,0.001,0.009,0.004,0.012,0.006c0.469,0.191,0.697,0.726,0.507,1.198
	c-0.141,0.349-0.478,0.616-0.853,0.573c-0.396-0.047-6.256-2.63-14.167-2.489c-11.397,0.201-20.375,3.29-23.603,4.883
	c-0.35,0.171-1.503,0.572-2.533-0.234C36.227,71.463,35.654,70.261,36.3,69.072 M53.478,1.839c-6.635,0-12.989,2.861-17.892,8.054
	c-4.676,4.954-7.355,11.371-7.353,17.609c0.017,9.144,3.417,13.523,9.051,20.777c2.578,3.304,3.893,6.893,3.877,10.668
	c-0.022,5.346-2.584,9.588-3.231,10.98c-0.095,0.205-0.142,0.436,0.02,0.563c0.279,0.218,0.657,0.002,0.802-0.065
	c5.576-2.624,14.155-4.292,19.161-4.738c3.7-0.329,6.246-0.226,6.246-0.226c0.001-1.509,0.127-2.864,0.366-3.944
	c0.479-2.235,1.783-3.914,3.669-4.725c1.583-0.693,3.253-0.758,4.693-0.763c0,0,3.112,0.216,4.829-1.071
	c0.984-0.739,1.512-1.267,1.637-2.642c0.088-0.965-0.131-1.712-0.039-2.339c0.238-1.65,0.853-2.198,0.837-2.546
	c-0.006-0.173-1.229-1.174-1.963-1.299c-0.084-0.015-0.856-0.146-0.885-0.921c-0.015-0.442,0.3-0.828,0.73-0.918
	c0,0,2.398-0.548,2.585-1.212c0.11-0.386-0.116-0.701-0.362-1.075c-0.544-0.831-0.777-1.558-0.76-2.129
	c0.02-0.583,0.248-1.275,0.946-1.793c1.29-0.96,2.456-0.998,2.441-2.016c-0.015-1.031-0.856-1.901-1.876-3.063
	c-1.101-1.255-3.55-4.944-3.612-5.559c-0.945,1.622-2.897,2.736-4.941,2.709c-3.875-0.052-4.848-2.979-4.792-4.483
	c0.067-1.842,1.525-4.306,4.749-4.261c1.414,0.02,2.997,0.426,4.444,1.876c0.041-0.378,0.697-4.597-2.792-10.439
	C69.925,5.922,62.309,1.84,53.478,1.839z M72.397,23.257c-2.085,0.023-2.855,1.343-2.886,2.568c0.022,0.728,0.351,2.475,2.946,2.491
	c2.083,0.013,3.212-1.184,3.854-2.771C75.454,24.296,74.378,23.274,72.397,23.257z"/>
<path fill="#62C8D3" d="M51.672,57.259c-4.673,0.153-8.784-2.365-8.853-2.404c-0.492-0.289-0.464-0.961-0.466-1.438
	c-0.001-0.733-0.026-1.735-0.056-1.999c-0.333-2.881-2.186-6.029-5.512-9.354c-4.69-4.66-6.427-8.675-6.408-14.818
	c0.015-8.751,7.521-18.52,18.265-18.546c6.41,0,12.001,3.008,14.959,8.048c1.374,2.339,2.101,4.72,2.102,6.886
	c-0.001,0.766-0.093,1.482-0.273,2.132c0.577,1.086,1.172,2.339,1.792,3.168c1.279,1.713,2.474,2.567,2.474,4.052
	c0,1.827-2.168,2.183-2.259,2.51c-0.037,0.351,0.768,1.328,0.771,2.059c0.003,0.432-0.2,1.175-1.126,1.672
	c0.107,0.089,0.823,0.63,0.786,1.354c-0.028,0.519-0.314,1.084-0.351,1.142c-0.385,0.612-0.156,1.502-0.156,1.849
	c0,1.457-0.604,2.405-1.734,3.193c-0.679,0.476-1.468,0.699-2.275,0.855c-0.988,0.189-2.478-0.004-3.42,0.548
	c-0.5,0.293-1.305,0.907-0.491,3.417c0.182,0.558,0.295,1.1,0.306,1.689c0.015,0.825-0.381,1.612-1.121,2.212
	C58.051,55.963,55.783,57.259,51.672,57.259 M43.857,53.728c2.981,1.681,5.892,2.064,7.815,2.035
	c3.761-0.056,5.695-1.166,5.992-1.423c0.529-0.461,0.569-0.724,0.589-1.068c0.026-0.454-0.661-2.543-0.64-3.577
	c0.025-1.215,0.573-2.273,1.577-2.826c0.768-0.437,1.753-0.649,3.013-0.654c0.996,0,1.936-0.254,2.596-0.696
	c0.72-0.493,1.06-1.113,1.067-1.951c0-0.143-0.21-1.543,0.282-2.45c0.173-0.316,0.205-0.466,0.22-0.517
	c-0.593-0.619-1.281-0.772-1.286-0.774c-0.353-0.062-0.611-0.367-0.617-0.723c-0.007-0.357,0.241-0.669,0.59-0.744
	c0.007-0.001,1.601-0.362,1.658-0.81c0.031-0.249-1.543-1.748-0.328-3.108c0.6-0.673,1.827-0.818,1.827-1.433
	c0-0.498-0.369-1.019-0.712-1.39c-2.057-2.228-2.853-4.148-2.853-4.148c-0.863,1.138-1.779,1.644-3.295,1.683
	c-2.723,0.07-3.333-2.235-3.333-3.036c0-0.801,0.511-2.981,3.283-3.079c1.145-0.041,2.178,0.453,2.892,1.101
	c0.01-0.167,0.2-3.322-1.882-6.636c-2.956-4.705-7.802-7.31-13.664-7.31c-4.407,0-8.629,1.901-11.885,5.353
	c-3.108,3.291-4.891,7.556-4.887,11.699c0.018,5.814,1.525,9.287,5.971,13.76c3.568,3.57,5.565,7.014,5.936,10.241
	C43.848,51.816,43.85,53.575,43.857,53.728z M59.513,26.119c0.001,0.404,0.246,1.707,2.317,1.509
	c1.282-0.122,1.869-1.473,1.955-1.674c-0.548-0.777-1.144-1.337-2.221-1.408C59.79,24.431,59.513,25.714,59.513,26.119z"/>
<path fill="#D0D339" d="M57.712,28.649c-0.279-0.338-0.854-0.955-1.332-1.966c-0.107-0.227-0.23-0.455-0.358-0.683
	c0.101-0.393,0.153-0.827,0.154-1.285c-0.001-1.362-0.456-2.854-1.315-4.317c-1.848-3.147-5.335-5.026-9.333-5.026
	c-6.696,0.022-11.375,6.109-11.389,11.56c-0.016,3.777,1.101,6.361,3.984,9.22c1.636,1.632,2.698,3.072,3.188,4.268
	c0.414,1.011,0.341,2.692,0.341,2.692c-0.007,0.494,0.103,0.661,0.345,0.837c2.161,1.276,4.246,1.545,5.613,1.545h0.007
	c2.419,0,3.784-0.767,4.15-1.07c0.487-0.403,0.768-0.946,0.751-1.504c-0.007-0.403-0.105-0.762-0.197-1.11
	c-0.075-0.29-0.203-0.704-0.194-1.096c0.011-0.456,0.147-0.614,0.415-0.787c0.42-0.271,1.305-0.256,1.305-0.256
	c0.587-0.001,1.444-0.109,2.202-0.612c0.735-0.477,1.314-1.334,1.101-2.689c-0.022-0.133,0.043-0.301,0.124-0.484
	c0.015-0.038,0.221-0.419,0.229-0.768c0.015-0.699-0.698-0.829-0.706-0.835c0.273-0.099,0.93-0.31,0.912-1.026
	c-0.012-0.559-0.453-1.058-0.467-1.183c0.039-0.034,0.512-0.275,0.66-0.369c0.345-0.2,0.724-0.649,0.724-1.252
	C58.628,29.541,57.885,28.859,57.712,28.649 M57.314,30.561c-0.042,0.064-0.789,0.396-1.027,0.666
	c-0.173,0.195-0.301,0.452-0.319,0.706c-0.106,0.547,0.442,1.198,0.464,1.314c-0.074,0.224-1.347,0.136-1.371,0.967
	c-0.019,0.619,0.823,0.559,1.139,0.961c-0.012,0.027-0.413,0.752-0.299,1.517c0.107,0.73-0.224,1.1-0.558,1.307
	c-0.377,0.235-0.922,0.397-1.495,0.397c-0.815,0.003-1.431,0.137-1.936,0.423c-0.668,0.363-1.059,1.088-1.059,1.889
	c0,0.76,0.392,1.906,0.392,2.206c0,0.987-2.583,1.305-3.628,1.305c-1.141,0-2.872-0.211-4.691-1.207c0,0,0.099-1.788-0.435-3.067
	c-0.575-1.375-1.692-2.917-3.466-4.694c-2.72-2.743-3.597-4.764-3.613-8.32c-0.001-2.499,1.073-5.071,2.951-7.057
	c1.966-2.083,4.533-3.229,7.165-3.229c3.521,0,6.613,1.646,8.234,4.397c0.714,1.211,1.112,2.471,1.137,3.566
	c-0.62-0.439-1.441-0.505-1.608-0.483c-1.698,0-2.236,1.348-2.236,2.12c0,0.727,0.478,2.048,2.26,2.085
	c0.004,0,1.214,0.074,2.023-0.888c0.521,1.101,1.561,2.215,1.626,2.289C57.262,30.087,57.431,30.387,57.314,30.561z M54.807,26.142
	c-0.055,0.121-0.393,0.929-1.188,1.013c-1.266,0.134-1.408-0.675-1.408-0.913c0-0.239,0.119-1.006,1.244-0.954
	C53.985,25.313,54.445,25.619,54.807,26.142z"/>
<path fill="#FFFFFF" d="M117.628,75.073c0.578,0,1.133,0.142,1.664,0.427c0.53,0.285,0.948,0.692,1.251,1.223
	c0.305,0.532,0.457,1.088,0.457,1.667c0,0.578-0.149,1.129-0.447,1.653c-0.298,0.525-0.713,0.933-1.246,1.226
	c-0.532,0.293-1.093,0.44-1.68,0.44c-0.586,0-1.146-0.147-1.679-0.44c-0.532-0.294-0.948-0.702-1.246-1.226
	c-0.297-0.524-0.446-1.075-0.446-1.653c0-0.579,0.152-1.135,0.456-1.667c0.303-0.53,0.721-0.938,1.251-1.223
	C116.496,75.215,117.051,75.073,117.628,75.073 M117.632,75.723c-0.463,0-0.908,0.114-1.333,0.342
	c-0.425,0.228-0.761,0.556-1.006,0.983s-0.367,0.875-0.367,1.342c0,0.465,0.12,0.908,0.359,1.33
	c0.238,0.422,0.573,0.751,1.001,0.987c0.428,0.237,0.877,0.355,1.347,0.355c0.473,0,0.923-0.118,1.349-0.355
	c0.427-0.236,0.761-0.565,1.002-0.987c0.24-0.422,0.361-0.865,0.361-1.33c0-0.467-0.122-0.915-0.368-1.342
	c-0.245-0.427-0.58-0.755-1.007-0.983C118.541,75.836,118.096,75.723,117.632,75.723z M116.105,80.166v-3.522h0.727
	c0.681,0,1.062,0.004,1.144,0.01c0.241,0.02,0.427,0.066,0.561,0.141c0.133,0.073,0.245,0.186,0.334,0.337
	c0.09,0.152,0.135,0.32,0.135,0.505c0,0.254-0.085,0.472-0.253,0.652c-0.168,0.18-0.405,0.293-0.71,0.336
	c0.108,0.041,0.192,0.084,0.25,0.132c0.059,0.047,0.14,0.138,0.242,0.27c0.026,0.035,0.115,0.178,0.265,0.429l0.422,0.71h-0.897
	l-0.3-0.572c-0.202-0.383-0.369-0.627-0.501-0.725c-0.132-0.099-0.299-0.149-0.501-0.149h-0.19v1.447H116.105z M116.832,78.166
	h0.295c0.419,0,0.68-0.016,0.78-0.048c0.102-0.031,0.183-0.087,0.241-0.166c0.058-0.08,0.088-0.17,0.088-0.272
	c0-0.098-0.028-0.186-0.086-0.261c-0.057-0.076-0.138-0.132-0.244-0.165c-0.106-0.034-0.365-0.05-0.779-0.05h-0.295V78.166z"/>
</svg>
